<?xml version="1.0" encoding="UTF-8" standalone="no"?>
<!DOCTYPE svg PUBLIC "-//W3C//DTD SVG 1.1//EN" "http://www.w3.org/Graphics/SVG/1.1/DTD/svg11.dtd">
<svg width="100%" height="100%" viewBox="0 0 443 397" version="1.1" xmlns="http://www.w3.org/2000/svg" xmlns:xlink="http://www.w3.org/1999/xlink" xml:space="preserve" xmlns:serif="http://www.serif.com/" style="fill-rule:evenodd;clip-rule:evenodd;stroke-linecap:round;stroke-linejoin:round;stroke-miterlimit:1.5;">
    <g transform="matrix(1,0,0,1,-736.565,-322.41)">
        <g>
            <path d="M935.863,328.529L939.338,371.132C939.338,371.132 945.977,444.766 935.863,463.414C925.798,481.972 914.155,491.905 913.204,492.743C912.253,493.58 908.666,475.531 907.389,469.528C906.113,463.526 894.658,442.954 893.922,442.252C893.186,441.55 889.519,436.527 881.011,433.06C872.503,429.593 852.299,425.074 838.002,432.504C823.704,439.934 800.478,453.864 786.399,474.53C772.32,495.196 754.496,531.666 751.128,553.666C747.759,575.666 739.099,596.119 739.713,625.32C740.326,654.52 738.443,674.816 740.354,681.796C742.265,688.776 740.651,704.55 747.921,710.398C755.192,716.245 760.476,718.3 770.922,714.203C781.369,710.105 801.269,699.893 804.569,699.667C807.869,699.441 814.765,694.821 825.86,696.161C836.954,697.502 855.234,697.783 860.96,699.581C866.686,701.38 880.665,700.868 886.441,693.852C892.217,686.837 897.373,679.35 898.027,671.621C898.68,663.892 905.959,633.544 905.551,632.074C905.143,630.605 909.434,597.988 909.228,598.3C909.021,598.611 912.33,569.499 912.776,569.997C913.223,570.495 910.21,546.277 913.332,541.096C916.454,535.916 928.68,522.456 928.68,522.456L946.423,504.97C946.423,504.97 951.779,496.48 960.617,500.524C969.454,504.568 977.473,515.626 978.958,517.369C980.442,519.111 1006.08,545.806 1006.83,546.355C1007.59,546.904 1007.81,556.338 1003.5,567.133C999.186,577.928 1003.64,590.547 1004.48,597.487C1005.33,604.428 1010.84,634.785 1011.15,636.735C1011.47,638.684 1017.2,665.403 1017.56,665.293C1017.93,665.184 1023.16,686.029 1023.16,686.029C1023.16,686.029 1025.74,697.089 1034.92,699.881C1044.11,702.672 1050.45,699.807 1053.9,699.624C1057.36,699.441 1074.04,697.519 1075.88,697.187C1077.72,696.855 1091.05,694.678 1096.83,695.605C1102.6,696.532 1121.44,706.331 1122.52,706.764C1123.61,707.197 1137.3,712.579 1139.67,713.604C1142.03,714.63 1152.89,718.48 1157.96,715.101C1163.03,711.721 1169.68,702.446 1169.68,702.446L1176.18,675.682C1176.18,675.682 1174.39,648.177 1174.85,637.29C1175.32,626.404 1172.45,588.216 1169.04,578.548C1165.62,568.879 1164.66,548.656 1145.27,507.706C1125.87,466.757 1118.43,465.332 1113.59,459.096C1108.74,452.861 1083.19,439.013 1081.91,438.019C1080.62,437.025 1068.3,425.142 1046.51,430.922C1024.72,436.702 1017.2,442.757 1013.2,449.263C1009.21,455.769 1004.19,475.437 1003.63,478.207C1003.06,480.977 997.55,491.231 996.914,491.76C996.278,492.288 980.228,474.701 980.497,472.991C980.765,471.282 976.621,472.361 975.623,443.705C974.625,415.05 975.153,366.372 974.507,365.467C973.861,364.563 975.424,324.791 975.024,325.323C974.625,325.855 935.863,328.529 935.863,328.529Z" style="fill:rgb(221,115,115);stroke:black;stroke-width:5.81px;"/>
            <g transform="matrix(1,0,0,1,-1.06299,-1.77165)">
                <path d="M861.516,604.456L873.401,621.472L871.434,654.434" style="fill:none;stroke:black;stroke-width:5.81px;"/>
                <path d="M918.12,537.762L866.774,589.578C866.774,589.578 847.084,625.308 844.927,626.987" style="fill:none;stroke:black;stroke-width:5.81px;"/>
                <path d="M816.256,605.993L783.534,597.274" style="fill:none;stroke:black;stroke-width:5.81px;"/>
                <path d="M798.583,616.427L807.219,640.711" style="fill:none;stroke:black;stroke-width:5.81px;"/>
                <path d="M854.071,554.713L848.775,585.004L830.862,596.974L804.954,612.066L784.689,624.678L778.49,655.717" style="fill:none;stroke:black;stroke-width:5.81px;"/>
                <path d="M814.06,503.388L822.183,526.817L850.742,527.159L867.245,509.93" style="fill:none;stroke:black;stroke-width:5.81px;"/>
                <path d="M882.568,533.316L878.574,511.383C878.574,511.383 854.443,505.029 852.324,506.253C850.204,507.477 858.241,482.191 857.454,483.038C856.668,483.885 859.378,471.537 859.378,471.537L849.545,467.946" style="fill:none;stroke:black;stroke-width:5.81px;"/>
                <path d="M914.266,493.763L885.585,530.237C885.585,530.237 879.076,539.067 866.902,546.056C854.729,553.044 840.096,563.499 840.096,563.499C840.096,563.499 830.161,567.297 818.207,567.603C806.253,567.91 802.014,570.785 790.076,556.744" style="fill:none;stroke:black;stroke-width:5.81px;"/>
            </g>
            <g transform="matrix(-1,0,0,1,1909.74,-7.44094)">
                <path d="M861.516,604.456L873.401,621.472L871.434,654.434" style="fill:none;stroke:black;stroke-width:5.81px;"/>
                <path d="M918.12,537.762L866.774,589.578C866.774,589.578 847.084,625.308 844.927,626.987" style="fill:none;stroke:black;stroke-width:5.81px;"/>
                <path d="M816.585,605.729L783.534,597.274" style="fill:none;stroke:black;stroke-width:5.81px;"/>
                <path d="M798.583,616.427L807.219,640.711" style="fill:none;stroke:black;stroke-width:5.81px;"/>
                <path d="M853.693,555.035L848.775,585.004L830.862,596.974L804.954,612.066L784.689,624.678L778.49,655.717" style="fill:none;stroke:black;stroke-width:5.81px;"/>
                <path d="M814.06,503.388L822.183,526.817L850.742,527.159L867.245,509.93" style="fill:none;stroke:black;stroke-width:5.81px;"/>
                <path d="M881.789,532.9L878.574,511.383C878.574,511.383 854.443,505.029 852.324,506.253C850.204,507.477 858.241,482.191 857.454,483.038C856.668,483.885 859.378,471.537 859.378,471.537L849.545,467.946" style="fill:none;stroke:black;stroke-width:5.81px;"/>
                <path d="M913.927,497.686L885.585,530.237C885.585,530.237 879.076,539.067 866.902,546.056C854.729,553.044 840.096,563.499 840.096,563.499C840.096,563.499 830.161,567.297 818.207,567.603C806.253,567.91 802.014,570.785 790.076,556.744" style="fill:none;stroke:black;stroke-width:5.81px;"/>
            </g>
        </g>
    </g>
</svg>
